# xmcd
# Track frame offsets:
# 150
# 14603
# 28269
# 46524
# 62369
# 77342
# 90915
# 108780
# 121440
# 136833
# 153652
# 170191
#
# Disc length: 2458 seconds
# Revision: 0
# Processed by: cddbd v1.4PL0 Copyright (c) Steve Scherf et al.
# Submitted via: VisiTrax 2.9.5.181 - For more info visit www.synapsa.com
#
DISCID=8a09980c
DTITLE=Various Artisits - Ultimate Country Hits Volume 4 cd2
DYEAR=2003
DGENRE=Country
TTITLE0=Collin Raye - In this Life
TTITLE1=Michael Peterson - Drink,Swear,Steal and Lie
TTITLE2=Randy travis - Hard rock bottom of your heart
TTITLE3=Doug stone - I never knew love
TTITLE4=Confederate Railroad - Queen of Memphis
TTITLE5=John Anderson - Money in the bank
TTITLE6=Little Texas - What might Have Been
TTITLE7=Holly Dunn - You really had me going
TTITLE8=highway 101 - Who's lonely now
TTITLE9=Sawyer Brown - The Walk
TTITLE10=Paul Brandt - I do
TTITLE11=Anita Cockran - I could love a man like that
EXTD=
EXTT0=
EXTT1=
EXTT2=
EXTT3=
EXTT4=
EXTT5=
EXTT6=
EXTT7=
EXTT8=
EXTT9=
EXTT10=
EXTT11=
PLAYORDER=
